<?xml version="1.0" encoding="utf-8"?>
<!-- Generator: Adobe Illustrator 19.0.0, SVG Export Plug-In . SVG Version: 6.00 Build 0)  -->
<svg version="1.1" xmlns="http://www.w3.org/2000/svg" xmlns:xlink="http://www.w3.org/1999/xlink" x="0px" y="0px"
	 viewBox="0 0 800 692" style="enable-background:new 0 0 800 692;" xml:space="preserve">
<style type="text/css">
	.st0{fill:#3A3737;}
	.st1{fill:#3F3C3A;stroke:#000000;stroke-width:4;stroke-miterlimit:10;}
	.st2{fill:#890B0B;stroke:#000000;stroke-width:4;stroke-miterlimit:10;}
	.st3{fill:#4C4845;stroke:#000000;stroke-width:4;stroke-miterlimit:10;}
	.st4{fill:#AD1414;stroke:#000000;stroke-width:4;stroke-miterlimit:10;}
	.st5{fill:#605555;stroke:#000000;stroke-width:4;stroke-miterlimit:10;}
	.st6{display:none;}
	.st7{display:inline;fill:none;}
	.st8{display:inline;}
	.st9{font-family:'MedusaGothic';}
	.st10{font-size:39px;}
</style>
<g id="Layer_1">
	<rect class="st0" width="800" height="692"/>
</g>
<g id="Controller">
	<g>
		<path class="st1" d="M406.4,254.7l-0.8,0c-24.7,4.3-45.6-12.9-45.6-12.9c-5.6-11.7,11.9-40.8,11.9-40.8h-0.7l-110,12
			c0,0-158.9,192.5-47.3,249.7c0,0,35.8,17.9,81.5-55.1c0,0,38.6,16.5,85.1-41.5c0,0,19.3-7.2,25-5l0.8,0"/>
		<path class="st1" d="M406.4,254.7l0.8,0c24.7,4.3,45.6-12.9,45.6-12.9c5.6-11.7-11.9-40.8-11.9-40.8h0.7l110,12
			c0,0,158.9,192.5,47.3,249.7c0,0-35.8,17.9-81.5-55.1c0,0-38.6,16.5-85.1-41.5c0,0-19.3-7.2-25-5l-0.8,0"/>
	</g>
	<g>
		<path class="st2" d="M406.4,264.9l-0.6,0c-20.2,3.6-37.2-10.5-37.2-10.5c-4.6-9.6,9.7-33.3,9.7-33.3h-0.6l-90,9.8
			c0,0-129.9,157.4-38.7,204.2c0,0,29.2,14.6,66.7-45c0,0,31.6,13.5,69.6-33.9c0,0,15.8-5.8,20.5-4.1l0.6,0"/>
		<path class="st2" d="M406.4,264.9l0.6,0c20.2,3.6,37.2-10.5,37.2-10.5c4.6-9.6-9.7-33.3-9.7-33.3h0.6l90,9.8
			c0,0,129.9,157.4,38.7,204.2c0,0-29.2,14.6-66.7-45c0,0-31.6,13.5-69.6-33.9c0,0-15.8-5.8-20.5-4.1l-0.6,0"/>
	</g>
	<g>
		<path class="st3" d="M406.4,277.6l-0.5,0c-16.2,2.8-29.9-8.4-29.9-8.4c-3.7-7.7,7.8-26.7,7.8-26.7h-0.5l-72.1,7.9
			c0,0-104.2,126.2-31,163.7c0,0,23.4,11.7,53.5-36.1c0,0,25.3,10.8,55.8-27.2c0,0,12.7-4.7,16.4-3.3l0.5,0"/>
		<path class="st3" d="M406.4,277.6l0.5,0c16.2,2.8,29.9-8.4,29.9-8.4c3.7-7.7-7.8-26.7-7.8-26.7h0.5l72.1,7.9
			c0,0,104.2,126.2,31,163.7c0,0-23.4,11.7-53.5-36.1c0,0-25.3,10.8-55.8-27.2c0,0-12.7-4.7-16.4-3.3l-0.5,0"/>
	</g>
	<g>
		<path class="st4" d="M406.4,288.3l-0.4,0c-12.8,2.3-23.6-6.7-23.6-6.7c-2.9-6.1,6.2-21.1,6.2-21.1h-0.4l-57,6.2
			c0,0-82.3,99.8-24.5,129.4c0,0,18.5,9.3,42.3-28.5c0,0,20,8.5,44.1-21.5c0,0,10-3.7,13-2.6l0.4,0"/>
		<path class="st4" d="M406.4,288.3l0.4,0c12.8,2.3,23.6-6.7,23.6-6.7c2.9-6.1-6.2-21.1-6.2-21.1h0.4l57,6.2
			c0,0,82.3,99.8,24.5,129.4c0,0-18.5,9.3-42.3-28.5c0,0-20,8.5-44.1-21.5c0,0-10-3.7-13-2.6l-0.4,0"/>
	</g>
	<g>
		<path class="st5" d="M406.4,296.4l-0.3,0c-9.2,1.6-17-4.8-17-4.8c-2.1-4.4,4.4-15.2,4.4-15.2h-0.3l-41,4.5
			c0,0-59.2,71.7-17.6,93.1c0,0,13.3,6.7,30.4-20.5c0,0,14.4,6.1,31.7-15.5c0,0,7.2-2.7,9.3-1.9l0.3,0"/>
		<path class="st5" d="M406.4,296.4l0.3,0c9.2,1.6,17-4.8,17-4.8c2.1-4.4-4.4-15.2-4.4-15.2h0.3l41,4.5c0,0,59.2,71.7,17.6,93.1
			c0,0-13.3,6.7-30.4-20.5c0,0-14.4,6.1-31.7-15.5c0,0-7.2-2.7-9.3-1.9l-0.3,0"/>
	</g>
</g>
<g id="Letters" class="st6">
</g>
<g id="Text" class="st6">
	<rect x="175.1" y="487.2" class="st7" width="505.8" height="108.5"/>
	<text transform="matrix(1 0 0 1 175.1466 518.2922)" class="st8"><tspan x="0" y="0" class="st9 st10">Path Of The </tspan><tspan x="0" y="46.8" class="st9 st10">Gamer</tspan></text>
</g>
</svg>
